<?xml version="1.0" encoding="utf-8"?>
<!-- Generator: Adobe Illustrator 22.1.0, SVG Export Plug-In . SVG Version: 6.00 Build 0)  -->
<svg version="1.1" id="图层_1" xmlns="http://www.w3.org/2000/svg" xmlns:xlink="http://www.w3.org/1999/xlink" x="0px" y="0px"
	 viewBox="0 0 768 768" style="enable-background:new 0 0 768 768;" xml:space="preserve">
<style type="text/css">
	.st0{fill:#6CCBFF;}
	.st1{fill:#0780ED;}
	.st2{fill:#063889;}
</style>
<g>
	<path class="st0" d="M382.2,174.5c-115.2,0-208.5,93.3-208.5,208.5c0,115.1,93.3,208.5,208.5,208.5c115.1,0,208.5-93.3,208.5-208.5
		C590.6,267.9,497.3,174.5,382.2,174.5z M382.2,535.5c-84.2,0-152.5-68.3-152.5-152.5c0-84.2,68.3-152.5,152.5-152.5
		c84.2,0,152.5,68.3,152.5,152.5C534.6,467.2,466.4,535.5,382.2,535.5z"/>
	<path class="st1" d="M382.2,79c-167.9,0-304,136.1-304,304c0,167.9,136.1,304,304,304c167.9,0,304-136.1,304-304
		C686.2,215.1,550.1,79,382.2,79z M382.2,591.5c-115.2,0-208.5-93.3-208.5-208.5c0-115.1,93.3-208.5,208.5-208.5
		c115.1,0,208.5,93.3,208.5,208.5C590.6,498.1,497.3,591.5,382.2,591.5z"/>
	<path class="st2" d="M382.2,41c-188.9,0-342,153.1-342,342c0,188.9,153.1,342,342,342c188.9,0,342-153.1,342-342
		C724.2,194.1,571.1,41,382.2,41z M382.2,687c-167.9,0-304-136.1-304-304c0-167.9,136.1-304,304-304c167.9,0,304,136.1,304,304
		C686.2,550.9,550.1,687,382.2,687z"/>
	<path class="st0" d="M382.2,3C172.3,3,2.2,173.1,2.2,383c0,209.9,170.1,380,380,380c209.9,0,380-170.1,380-380
		C762.2,173.1,592.1,3,382.2,3z M382.2,725c-188.9,0-342-153.1-342-342c0-188.9,153.1-342,342-342c188.9,0,342,153.1,342,342
		C724.2,571.9,571.1,725,382.2,725z"/>
</g>
</svg>
