<svg xmlns="http://www.w3.org/2000/svg" viewBox="0 0 199 199"><defs><style>.a{fill:none;}.b{fill:#007aec;}.c{fill:#003286;}.d{fill:#63c2ff;}</style></defs><title>画板 1</title><path class="a" d="M99.37,53.27a46.1,46.1,0,1,0,45.49,53.54H129.5V88.66h14.71A46.12,46.12,0,0,0,99.37,53.27Z"/><path class="b" d="M99.37,175.24a75.87,75.87,0,1,1,75.11-86.58h22.68a98.39,98.39,0,1,0,.3,18.15H174.87A75.87,75.87,0,0,1,99.37,175.24Z"/><path class="c" d="M99.37,23.51a75.87,75.87,0,1,0,75.5,83.3H163.19a64.23,64.23,0,1,1-.46-18.15h11.75A75.87,75.87,0,0,0,99.37,23.51Z"/><path class="d" d="M99.37,145.47a46.1,46.1,0,1,1,44.84-56.81h18.52a64.27,64.27,0,1,0,.46,18.15H144.86A46.09,46.09,0,0,1,99.37,145.47Z"/></svg>